/* XPM */
static char *_ab9742326e14ab0ec02d5d44007c9c1hAgSJt5fRjhtIheJ[] = {
/* columns rows colors chars-per-pixel */
"32 32 2 1 ",
"  c #000419",
". c red",
/* pixels */
"                                ",
"                                ",
"                                ",
"                                ",
"                                ",
"                                ",
"                                ",
"         ...............        ",
"         .                      ",
"         .                      ",
"         .                      ",
"         .                      ",
"         .                      ",
"         .                      ",
"         .                      ",
"         .                      ",
"         ..........             ",
"         .                      ",
"         .                      ",
"         .                      ",
"         .                      ",
"         .                      ",
"         .                      ",
"         .                      ",
"         .                      ",
"         ...............        ",
"                                ",
"                                ",
"                                ",
"                                ",
"                                ",
"                                "
};
