/* XPM */
static char *a5509180df904e31a3de931bce493aa4YfIQHlSbnefZVeoK[] = {
/* columns rows colors chars-per-pixel */
"32 32 2 1 ",
"  c #000419",
". c #FFF200",
/* pixels */
"                                ",
"                                ",
"                                ",
"                                ",
"                                ",
"                                ",
"                                ",
"          .          .          ",
"          ..         .          ",
"          ..         .          ",
"          . .        .          ",
"          .  .       .          ",
"          .  .       .          ",
"          .   .      .          ",
"          .    .     .          ",
"          .    .     .          ",
"          .     .    .          ",
"          .     ..   .          ",
"          .      .   .          ",
"          .      ..  .          ",
"          .       .  .          ",
"          .       .  .          ",
"          .        . .          ",
"          .        ...          ",
"          .         ..          ",
"                                ",
"                                ",
"                                ",
"                                ",
"                                ",
"                                ",
"                                "
};
