/* XPM */
static char *_0fd7070e1fd4d75aff0fbbc23e6d1f7IVD2UwN0Ae0onVzp[] = {
/* columns rows colors chars-per-pixel */
"32 32 2 1 ",
"  c #000419",
". c #58FF00",
/* pixels */
"                                ",
"                                ",
"                                ",
"                                ",
"                                ",
"                                ",
"            ........            ",
"           ..      ..           ",
"          ..        ..          ",
"         ..          ..         ",
"         .            .         ",
"         ..          .          ",
"          ..                    ",
"           ..                   ",
"             ...                ",
"               ..               ",
"                ...             ",
"                 ..             ",
"                  ...           ",
"                    .           ",
"                     ..         ",
"         .            .         ",
"         ..          ..         ",
"          ..        ..          ",
"           ..      ..           ",
"            ........            ",
"                                ",
"                                ",
"                                ",
"                                ",
"                                ",
"                                "
};
