/* XPM */
static char *f9b6ecb198d848b18f7e3418254c4ca9n8DvkgKJ1K84rnmT[] = {
/* columns rows colors chars-per-pixel */
"32 32 2 1 ",
"  c #000419",
". c #0051FF",
/* pixels */
"                                ",
"                                ",
"                                ",
"                                ",
"                                ",
"                                ",
"                                ",
"       .                .       ",
"       .                .       ",
"        .              .        ",
"        .      ..      .        ",
"        .      ..      .        ",
"        .     .  .     .        ",
"        .     .  .     .        ",
"        .     .  .     .        ",
"        .    ..  ..    .        ",
"        .    .    .    .        ",
"        ..   .    .   ..        ",
"         .   .    .   .         ",
"         .  .      .  .         ",
"         .  .      .  .         ",
"         .. .      . ..         ",
"          ..        ..          ",
"          ..        ..          ",
"           .        .           ",
"                                ",
"                                ",
"                                ",
"                                ",
"                                ",
"                                ",
"                                "
};
